<svg width="92" height="91" viewBox="0 0 92 91" fill="none" xmlns="http://www.w3.org/2000/svg">
<g clip-path="url(#clip0_4_507)">
<path d="M8.15995 67.14C9.53995 66.98 11.51 66.63 13.95 66.19L14.23 66.14C16.78 65.69 19.67 65.17 22.94 64.68C25.02 64.37 26.75 62.88 27.34 60.87L29.42 53.94L32.53 57.19C33.26 57.88 33.82 58.79 34.05 59.66L36.41 74.51C36.54 75.36 37.29 76 38.15 76C38.24 76 38.33 76 38.43 75.98C39.3899 75.83 40.05 74.92 39.9 73.96L37.51 58.94C37.08 57.3 36.19 55.79 35.02 54.69L29.97 49.42C29.97 49.42 29.95 49.41 29.95 49.4L25.8 45.07C25.09 44.33 24.7 43.36 24.7 42.35V27.42C24.7 26.86 24.43 26.32 23.97 25.98C23.51 25.65 22.91 25.56 22.38 25.74L13.95 28.57C13.36 28.77 12.91 29.27 12.79 29.87L11.09 37.96C11.03 38.3 10.73 38.51 10.31 38.53C9.94995 38.47 9.67995 38.12 9.72995 37.79L11.63 27.91C11.66 27.7 11.8 27.51 11.99 27.41L22.7 21.89C22.8 21.84 22.86 21.82 23.1 21.81L34.91 21.68C35.68 21.68 36.42 21.9 37.08 22.31L44.56 27.06C45.13 27.42 45.8599 27.43 46.4399 27.07L52.82 23.11C52.9799 23.01 53.16 22.97 53.34 23.01C53.52 23.05 53.6699 23.15 53.7599 23.31C53.8599 23.46 53.8899 23.64 53.86 23.82C53.82 24 53.72 24.15 53.59 24.23L45.7999 29.12C45.4699 29.33 45.08 29.16 44.79 28.96L42.2099 27.6C41.79 27.38 41.31 27.34 40.86 27.48C40.41 27.62 40.05 27.93 39.83 28.34C39.61 28.76 39.57 29.23 39.7099 29.68C39.8499 30.13 40.16 30.5 40.58 30.72L42.9399 31.94C44.34 32.97 46.2599 33.03 47.7099 32.1L55.5099 27.21C56.4499 26.6 57.1 25.65 57.33 24.55C57.56 23.45 57.35 22.33 56.74 21.39C56.13 20.44 55.18 19.8 54.07 19.56C52.9799 19.33 51.86 19.53 50.95 20.13L45.54 23.49L38.99 19.33C37.73 18.53 36.3 18.13 34.85 18.15L23.14 18.28C22.34 18.29 21.7 18.44 21.1 18.75L10.39 24.26C9.20995 24.87 8.37995 26 8.16995 27.28L6.26995 37.16C5.90995 39.44 7.47995 41.61 9.77995 41.99C10.06 42.03 10.33 42.04 10.67 42.03C12.59 41.92 14.27 40.43 14.57 38.59L16.05 31.57L21.2 29.84V42.32C21.2 44.25 21.94 46.09 23.28 47.48L26.65 51L23.99 59.84C23.78 60.54 23.17 61.07 22.44 61.18C19.17 61.67 16.27 62.18 13.71 62.64L13.35 62.7C11.18 63.09 9.12995 63.46 7.76995 63.62C6.80995 63.74 6.10995 64.61 6.22995 65.58C6.32995 66.47 7.08995 67.14 7.97995 67.14C8.04995 67.14 8.11995 67.14 8.18995 67.13L8.15995 67.14Z" fill="white"/>
<path d="M19.75 57.73C20.34 57.57 20.8 57.13 20.98 56.54L22.74 50.68C22.88 50.23 22.83 49.75 22.6 49.34C22.38 48.93 22.01 48.63 21.56 48.49C21.11 48.35 20.64 48.4 20.22 48.62C19.8 48.84 19.5 49.22 19.36 49.67L17.88 54.59L5.75998 57.86C2.35998 58.78 -0.0200195 61.88 -0.0200195 65.4C-0.0200195 66.37 0.76998 67.16 1.73998 67.16C2.70998 67.16 3.49998 66.37 3.49998 65.4C3.49998 63.47 4.79998 61.76 6.66998 61.26L19.73 57.74L19.75 57.73Z" fill="white"/>
<path d="M30.5 15.64H30.95C35.24 15.36 38.55 11.64 38.31 7.35C38.05 3.23 34.62 0 30.5 0H30.06C25.77 0.28 22.46 4 22.7 8.29C22.96 12.41 26.39 15.64 30.51 15.64H30.5ZM26.21 8.09C26.08 5.64 27.92 3.68 30.51 3.53C32.77 3.53 34.65 5.3 34.79 7.56C34.92 9.96 33.14 11.96 30.75 12.12H30.5C28.24 12.12 26.36 10.35 26.21 8.1V8.09Z" fill="white"/>
<path d="M35.04 24.21C34.07 24.21 33.28 25 33.28 25.97V44.12C33.28 44.46 33.38 44.79 33.56 45.08L39.79 54.67C40.19 55.33 40.46 56.07 40.56 56.81L42.37 74.55C42.46 75.45 43.21 76.13 44.12 76.13H44.3C44.77 76.08 45.19 75.85 45.48 75.49C45.78 75.12 45.92 74.66 45.87 74.19L44.05 56.4C43.88 55.11 43.45 53.9 42.76 52.78L36.8 43.59V25.96C36.8 24.99 36.01 24.2 35.04 24.2V24.21Z" fill="white"/>
<path d="M90.4001 26.02C89.8701 25.7 89.2101 25.68 88.6601 25.97L68.2401 36.89C67.6801 37.19 67.3201 37.77 67.3101 38.41C67.3001 39.04 67.6201 39.64 68.1701 39.96L73.4701 43.12L66.2401 55.22C45.5601 89.84 13.0501 86.75 9.4101 86.29C8.9601 86.22 8.5001 86.34 8.1301 86.62C7.7501 86.91 7.4901 87.34 7.4301 87.82C7.3701 88.29 7.5001 88.75 7.7901 89.12C8.0801 89.49 8.5001 89.73 8.9601 89.79C9.6401 89.88 11.5101 90.08 14.2101 90.08C24.8301 90.08 51.4501 86.86 69.2601 57.04L77.3901 43.42C77.8901 42.59 77.6101 41.5 76.7801 41L72.6501 38.53L87.7301 30.46V47.53L83.5901 45.06C82.7501 44.57 81.6701 44.85 81.1701 45.67L73.0401 59.29C72.5401 60.12 72.8201 61.21 73.6501 61.71C74.4801 62.2 75.5701 61.93 76.0701 61.1L83.3001 49L88.5901 52.16C89.1301 52.49 89.8201 52.49 90.3701 52.18C90.9201 51.87 91.2601 51.28 91.2601 50.65V27.53C91.2601 26.91 90.9301 26.33 90.4001 26.02Z" fill="white"/>
<path d="M70.1999 64.1L69.9899 64.31C69.6599 64.64 69.4899 65.07 69.5299 65.52C69.5599 65.94 69.7599 66.36 70.0999 66.69C70.3999 66.99 70.8199 67.16 71.2899 67.16C71.8199 67.16 72.3399 66.95 72.6999 66.59C73.0299 66.26 73.2199 65.81 73.2199 65.34C73.2199 64.87 73.0399 64.43 72.6999 64.09C72.0399 63.42 70.8699 63.42 70.2099 64.09L70.1999 64.1Z" fill="white"/>
<path d="M89.49 63.54C88.52 63.54 87.73 64.33 87.73 65.3V65.6C87.73 66.53 88.47 67.21 89.49 67.21C90.43 67.21 91.25 66.32 91.25 65.3C91.25 64.28 90.46 63.54 89.49 63.54Z" fill="white"/>
<path d="M89.49 69.59C88.52 69.59 87.73 70.38 87.73 71.35V71.65C87.73 72.58 88.47 73.26 89.49 73.26C90.43 73.26 91.25 72.37 91.25 71.35C91.25 70.33 90.46 69.59 89.49 69.59Z" fill="white"/>
<path d="M89.49 75.64C88.52 75.64 87.73 76.43 87.73 77.4V77.7C87.73 78.63 88.47 79.31 89.49 79.31C90.43 79.31 91.25 78.42 91.25 77.39C91.25 76.36 90.46 75.63 89.49 75.63V75.64Z" fill="white"/>
</g>
<defs>
<clipPath id="clip0_4_507">
<rect width="91.26" height="90.08" fill="white"/>
</clipPath>
</defs>
</svg>
